<svg width="470" height="173" viewBox="0 0 470 173" fill="none" xmlns="http://www.w3.org/2000/svg">
<path d="M164.777 46.9062V118H148.859V46.9062H164.777ZM192.756 76.8867V89.1914H160.334V76.8867H192.756ZM195.881 46.9062V59.2598H160.334V46.9062H195.881ZM231.691 118.977C227.492 118.977 223.732 118.309 220.412 116.975C217.092 115.64 214.276 113.801 211.965 111.457C209.686 109.081 207.945 106.346 206.74 103.254C205.536 100.161 204.934 96.8574 204.934 93.3418V91.4863C204.934 87.5475 205.487 83.918 206.594 80.5977C207.701 77.2773 209.312 74.3965 211.428 71.9551C213.576 69.4811 216.213 67.5768 219.338 66.2422C222.463 64.875 226.027 64.1914 230.031 64.1914C233.775 64.1914 237.111 64.8099 240.041 66.0469C242.971 67.2513 245.445 68.9928 247.463 71.2715C249.481 73.5176 251.011 76.2357 252.053 79.4258C253.127 82.5833 253.664 86.1315 253.664 90.0703V96.3203H211.086V86.5059H238.723V85.334C238.723 83.4785 238.381 81.8509 237.697 80.4512C237.046 79.0514 236.07 77.9772 234.768 77.2285C233.498 76.4473 231.887 76.0566 229.934 76.0566C228.078 76.0566 226.532 76.4473 225.295 77.2285C224.058 78.0098 223.065 79.1165 222.316 80.5488C221.6 81.9486 221.079 83.5924 220.754 85.4805C220.428 87.3359 220.266 89.3379 220.266 91.4863V93.3418C220.266 95.3926 220.542 97.2643 221.096 98.957C221.649 100.65 222.463 102.098 223.537 103.303C224.611 104.507 225.913 105.451 227.443 106.135C228.973 106.818 230.715 107.16 232.668 107.16C235.077 107.16 237.372 106.704 239.553 105.793C241.734 104.849 243.622 103.384 245.217 101.398L252.346 109.553C251.271 111.115 249.758 112.629 247.805 114.094C245.884 115.526 243.573 116.698 240.871 117.609C238.169 118.521 235.109 118.977 231.691 118.977ZM282.15 43V118H266.867V43H282.15ZM323.039 118.977C318.84 118.977 315.08 118.309 311.76 116.975C308.439 115.64 305.624 113.801 303.312 111.457C301.034 109.081 299.292 106.346 298.088 103.254C296.883 100.161 296.281 96.8574 296.281 93.3418V91.4863C296.281 87.5475 296.835 83.918 297.941 80.5977C299.048 77.2773 300.66 74.3965 302.775 71.9551C304.924 69.4811 307.561 67.5768 310.686 66.2422C313.811 64.875 317.375 64.1914 321.379 64.1914C325.122 64.1914 328.459 64.8099 331.389 66.0469C334.318 67.2513 336.792 68.9928 338.811 71.2715C340.829 73.5176 342.359 76.2357 343.4 79.4258C344.475 82.5833 345.012 86.1315 345.012 90.0703V96.3203H302.434V86.5059H330.07V85.334C330.07 83.4785 329.729 81.8509 329.045 80.4512C328.394 79.0514 327.417 77.9772 326.115 77.2285C324.846 76.4473 323.234 76.0566 321.281 76.0566C319.426 76.0566 317.88 76.4473 316.643 77.2285C315.406 78.0098 314.413 79.1165 313.664 80.5488C312.948 81.9486 312.427 83.5924 312.102 85.4805C311.776 87.3359 311.613 89.3379 311.613 91.4863V93.3418C311.613 95.3926 311.89 97.2643 312.443 98.957C312.997 100.65 313.811 102.098 314.885 103.303C315.959 104.507 317.261 105.451 318.791 106.135C320.321 106.818 322.062 107.16 324.016 107.16C326.424 107.16 328.719 106.704 330.9 105.793C333.081 104.849 334.969 103.384 336.564 101.398L343.693 109.553C342.619 111.115 341.105 112.629 339.152 114.094C337.232 115.526 334.921 116.698 332.219 117.609C329.517 118.521 326.457 118.977 323.039 118.977ZM372.375 76.4473V118H357.092V65.168H371.447L372.375 76.4473ZM370.373 89.7285L366.564 89.8262C366.564 85.8548 367.053 82.2904 368.029 79.1328C369.006 75.9753 370.389 73.2897 372.18 71.0762C374.003 68.8301 376.167 67.1211 378.674 65.9492C381.213 64.7773 384.012 64.1914 387.072 64.1914C389.546 64.1914 391.809 64.5495 393.859 65.2656C395.91 65.9818 397.668 67.1374 399.133 68.7324C400.63 70.2949 401.77 72.3783 402.551 74.9824C403.332 77.554 403.723 80.7279 403.723 84.5039V118H388.391V84.4551C388.391 82.2415 388.081 80.5326 387.463 79.3281C386.844 78.1237 385.933 77.2773 384.729 76.7891C383.557 76.3008 382.124 76.0566 380.432 76.0566C378.641 76.0566 377.111 76.4147 375.842 77.1309C374.572 77.8145 373.531 78.7747 372.717 80.0117C371.903 81.2487 371.301 82.6973 370.91 84.3574C370.552 86.0176 370.373 87.8079 370.373 89.7285ZM449.445 106.184V43H464.777V118H451.008L449.445 106.184ZM416.535 92.2188V91.1934C416.535 87.1895 416.975 83.5436 417.854 80.2559C418.765 76.9355 420.083 74.0872 421.809 71.7109C423.566 69.3021 425.731 67.4466 428.303 66.1445C430.874 64.8424 433.82 64.1914 437.141 64.1914C440.201 64.1914 442.87 64.875 445.148 66.2422C447.427 67.5768 449.364 69.4648 450.959 71.9062C452.587 74.3151 453.905 77.1634 454.914 80.4512C455.923 83.7064 456.688 87.2383 457.209 91.0469V92.8047C456.721 96.4505 455.956 99.8522 454.914 103.01C453.905 106.167 452.587 108.951 450.959 111.359C449.364 113.736 447.411 115.607 445.1 116.975C442.821 118.309 440.135 118.977 437.043 118.977C433.723 118.977 430.777 118.309 428.205 116.975C425.666 115.64 423.534 113.768 421.809 111.359C420.083 108.951 418.765 106.118 417.854 102.863C416.975 99.6081 416.535 96.0599 416.535 92.2188ZM431.77 91.1934V92.2188C431.77 94.3021 431.916 96.2389 432.209 98.0293C432.535 99.8197 433.055 101.398 433.771 102.766C434.488 104.133 435.432 105.207 436.604 105.988C437.775 106.737 439.208 107.111 440.9 107.111C443.179 107.111 445.051 106.59 446.516 105.549C447.98 104.475 449.087 102.993 449.836 101.105C450.585 99.2174 450.975 97.0202 451.008 94.5137V89.3867C451.008 87.3034 450.796 85.4316 450.373 83.7715C449.95 82.1113 449.315 80.7116 448.469 79.5723C447.655 78.4329 446.63 77.5703 445.393 76.9844C444.156 76.3659 442.691 76.0566 440.998 76.0566C439.338 76.0566 437.922 76.4473 436.75 77.2285C435.578 77.9772 434.618 79.0352 433.869 80.4023C433.153 81.7695 432.616 83.3809 432.258 85.2363C431.932 87.0592 431.77 89.0449 431.77 91.1934Z" fill="url(#paint0_linear_4_30)"/>
<path d="M0 57L99 0.322491V38.8225L0 95.8225V57Z" fill="url(#paint1_linear_4_30)"/>
<path d="M0 108.5L99 53.6776V89.8978L32 127V172.5L0 147.711V108.5Z" fill="url(#paint2_linear_4_30)"/>
<defs>
<linearGradient id="paint0_linear_4_30" x1="306.5" y1="25" x2="306.5" y2="142" gradientUnits="userSpaceOnUse">
<stop stop-color="#16ADE6"/>
<stop offset="1" stop-color="#0B6EB2"/>
</linearGradient>
<linearGradient id="paint1_linear_4_30" x1="49.5" y1="-3" x2="49.5" y2="170" gradientUnits="userSpaceOnUse">
<stop stop-color="#1BB1E9"/>
<stop offset="1" stop-color="#0A6BAD"/>
</linearGradient>
<linearGradient id="paint2_linear_4_30" x1="49.5" y1="-3" x2="49.5" y2="170" gradientUnits="userSpaceOnUse">
<stop stop-color="#1BB1E9"/>
<stop offset="1" stop-color="#0A6BAD"/>
</linearGradient>
</defs>
</svg>
